<?xml version="1.0" encoding="UTF-8"?><svg id="Layer_2" xmlns="http://www.w3.org/2000/svg" viewBox="0 0 272.51 60.01"><defs><style>.cls-1{fill:#0452be;}.cls-2{fill:#80bc2c;}</style></defs><g id="Warstwa_1"><g><path class="cls-1" d="M83.27,14.28h14.39c7.56,0,11.99,4.06,11.99,10.29,0,5.3-3.18,8.49-7.7,9.78l8.71,12.22h-6.68l-8.03-11.25h-7.01v11.25h-5.67V14.29h0Zm13.97,15.99c4.05,0,6.64-2.12,6.64-5.48s-2.49-5.35-6.69-5.35h-8.25v10.83h8.3Z"/><path class="cls-1" d="M129.26,46.56v-3c-1.66,1.98-4.19,3.5-7.88,3.5-4.61,0-8.67-2.63-8.67-7.61,0-5.39,4.2-7.97,9.87-7.97,2.95,0,4.84,.41,6.73,1.01v-.45c0-3.37-2.12-5.21-5.99-5.21-2.72,0-4.75,.6-6.96,1.52l-1.52-4.47c2.67-1.2,5.3-2.03,9.27-2.03,7.19,0,10.7,3.78,10.7,10.29v14.43h-5.55Zm.14-10.2c-1.43-.56-3.41-.97-5.58-.97-3.5,0-5.58,1.43-5.58,3.87,0,2.3,2.08,3.6,4.71,3.6,3.69,0,6.45-2.08,6.45-5.12v-1.38h0Z"/><path class="cls-1" d="M139.93,13.17h6v5.3h-6v-5.3Zm.23,9.04h5.58v24.35h-5.58V22.21Z"/><path class="cls-1" d="M151.73,12.89h5.58V46.56h-5.58V12.89h0Z"/><path class="cls-2" d="M161.47,41.85l3.41-4.06c3.09,2.68,6.18,4.2,10.19,4.2,3.5,0,5.72-1.61,5.72-4.15,0-2.31-1.29-3.55-7.29-4.98-6.87-1.62-10.74-3.64-10.74-9.68,0-5.54,4.61-9.36,11.02-9.36,4.7,0,8.44,1.43,11.71,4.06l-3.04,4.29c-2.9-2.17-5.81-3.32-8.76-3.32-3.32,0-5.26,1.71-5.26,3.92,0,2.49,1.48,3.6,7.65,5.07,6.82,1.66,10.38,4.1,10.38,9.54,0,6.04-4.75,9.64-11.53,9.64-4.93,0-9.59-1.71-13.46-5.17h0Z"/><path class="cls-2" d="M192.06,39.83v-12.82h-3.09v-4.8h3.09v-6.69h5.58v6.69h6.55v4.8h-6.55v11.94c0,2.16,1.11,3.04,3,3.04,1.24,0,2.35-.28,3.46-.83v4.57c-1.38,.78-2.95,1.24-5.03,1.24-4.1,0-7.01-1.79-7.01-7.14h0Z"/><path class="cls-2" d="M223.1,46.56v-3c-1.66,1.98-4.19,3.5-7.88,3.5-4.61,0-8.67-2.63-8.67-7.61,0-5.39,4.2-7.97,9.86-7.97,2.95,0,4.84,.41,6.74,1.01v-.45c0-3.37-2.12-5.21-5.99-5.21-2.72,0-4.75,.6-6.96,1.52l-1.52-4.47c2.68-1.2,5.31-2.03,9.27-2.03,7.19,0,10.7,3.78,10.7,10.29v14.43h-5.55Zm.14-10.2c-1.43-.56-3.41-.97-5.58-.97-3.5,0-5.58,1.43-5.58,3.87,0,2.3,2.08,3.6,4.7,3.6,3.69,0,6.46-2.08,6.46-5.12v-1.38h0Z"/><path class="cls-2" d="M234.82,39.83v-12.82h-3.09v-4.8h3.09v-6.69h5.58v6.69h6.55v4.8h-6.55v11.94c0,2.16,1.11,3.04,3,3.04,1.25,0,2.35-.28,3.46-.83v4.57c-1.38,.78-2.95,1.24-5.03,1.24-4.1,0-7.01-1.79-7.01-7.14h0Z"/><path class="cls-2" d="M248.94,34.38c0-6.96,4.93-12.68,11.9-12.68,7.75,0,11.67,6.09,11.67,13.1,0,.37-.04,1.29-.09,1.57h-17.89c.6,3.96,3.41,6.18,7.01,6.18,2.72,0,4.66-1.01,6.6-2.9l3.27,2.9c-2.31,2.76-5.49,4.57-9.96,4.57-7.05,0-12.5-5.12-12.5-12.73h-.01Zm18.03-1.71c-.37-3.6-2.49-6.41-6.18-6.41-3.41,0-5.81,2.63-6.32,6.41h12.5Z"/></g><g><polygon class="cls-1" points="36.63 21.05 30.55 27.52 39.99 27.52 44.15 21.05 36.63 21.05"/><polygon class="cls-1" points="31.25 41.08 37.2 31.85 26.49 31.85 17.81 41.08 31.25 41.08"/><path class="cls-2" d="M55.83,5.03l-.83,1.69h1.26l-.46,1.49h-1.54l-1.56,3.16h2.14l-.64,2.13h-2.54l-2.23,4.52h3.4l-.92,3.03h-3.97l-3.19,6.47h5.2l-1.31,4.33h-6.02l-4.55,9.23h7.77l-1.88,6.19h-8.94l-6.28,12.74H63.75l-13.18-19.49c7.49-3.24,12.74-10.7,12.74-19.39,0-6.45-2.9-12.22-7.46-16.09h-.02Z"/><path class="cls-1" d="M53.37,3.24l-3.26,3.48h3.28l1.54-2.4c-.5-.38-1.02-.74-1.56-1.08h0Z"/><polygon class="cls-1" points="43.73 13.5 39.48 18.02 46.1 18.02 49.02 13.5 43.73 13.5"/><polygon class="cls-1" points="27.26 47.27 11.99 47.27 0 60 19.06 60 27.26 47.27"/><polygon class="cls-1" points="48.7 8.21 45.73 11.37 50.39 11.37 52.42 8.21 48.7 8.21"/><path class="cls-2" d="M2.48,41.08h6.38l10.7-9.23h-5.25l5.59-4.33h4.67l7.49-6.47h-3.81l3.92-3.03h3.41l5.24-4.52h-2.82l2.75-2.13h2.53l3.66-3.16h-2.12l1.93-1.49h1.92l4.3-3.71c-3.17-1.9-6.86-3.01-10.82-3.01H9.46V35.6l-6.99,5.48h0Z"/></g></g></svg>